<?xml version="1.0" encoding="utf-8"?>
<!-- Generator: Adobe Illustrator 18.1.0, SVG Export Plug-In . SVG Version: 6.00 Build 0)  -->
<svg version="1.1" id="Layer_1" xmlns="http://www.w3.org/2000/svg" xmlns:xlink="http://www.w3.org/1999/xlink" x="0px" y="0px"
	 viewBox="0 0 600 600" enable-background="new 0 0 600 600" xml:space="preserve">
<g>
	<path fill="#010101" d="M102.3,77H267c38.2,0,72.3,5.2,102.2,15.6c29.9,10.4,55.1,24.9,75.6,43.6c20.5,18.7,36.2,41,47,66.8
		c10.8,25.8,16.2,54.2,16.2,85.1v1.2c0,30.9-5.5,59.5-16.5,85.7c-11,26.2-26.8,48.9-47.6,68c-20.7,19.1-46.3,34.1-76.6,44.8
		C337,498.6,302.8,504,264.5,504H102.3V77z M269,399.1c35.5,0,64.1-9.4,85.7-28.1c21.6-18.7,32.5-45.3,32.5-79.9v-1.2
		c0-34.2-10.8-60.7-32.5-79.6c-21.6-18.9-50.2-28.4-85.7-28.4h-48.4v217.2H269z"/>
</g>
</svg>
